<?xml version="1.0" standalone="no"?>
<!DOCTYPE svg PUBLIC "-//W3C//DTD SVG 20010904//EN"
 "http://www.w3.org/TR/2001/REC-SVG-20010904/DTD/svg10.dtd">
<svg version="1.0" xmlns="http://www.w3.org/2000/svg"
 width="700.000000pt" height="700.000000pt" viewBox="0 0 700.000000 700.000000"
 preserveAspectRatio="xMidYMid meet">
<metadata>
Created by potrace 1.11, written by Peter Selinger 2001-2013
</metadata>
<g transform="translate(0.000000,700.000000) scale(0.100000,-0.100000)"
fill="#000000" stroke="none">
<path d="M345 6986 c-119 -29 -240 -124 -292 -228 -56 -112 -53 107 -53 -3252
1 -1955 4 -3109 11 -3141 24 -125 119 -254 227 -309 118 -60 -117 -56 3262
-56 3388 0 3148 -4 3265 57 110 57 204 190 225 319 6 37 10 1206 10 3140 0
3360 4 3128 -56 3245 -55 109 -183 204 -309 228 -79 16 -6226 13 -6290 -3z"/>
</g>
</svg>
