<svg width="75" height="75" viewBox="0 0 75 75" xmlns="http://www.w3.org/2000/svg"><g fill="none" fill-rule="evenodd"><path d="M4.8 0h65.4A4.8 4.8 0 0 1 75 4.8v65.4a4.8 4.8 0 0 1-4.8 4.8H4.8A4.8 4.8 0 0 1 0 70.2V4.8A4.8 4.8 0 0 1 4.8 0z" fill="#07D654"/><path fill="#FFF" d="M13.5 10.5h48.75v54H13.5z"/><path fill="#248232" d="M0 42.75h50.25v10.5H0zM24.75 21H75v10.5H24.75z"/><path fill="#2BA84A" d="M0 10.5h13.5v54H0zm61.5 0H75v54H61.5z"/><path d="M0 64.5h75V75H0z"/><path fill="#248232" d="M13.5 0h48.75v10.5H13.5zm0 64.5h48.75V75H13.5z"/></g></svg>